<svg width="129" height="21" viewBox="0 0 129 21" fill="none" xmlns="http://www.w3.org/2000/svg">
<path fill-rule="evenodd" clip-rule="evenodd" d="M0 0H13.5389V2.05389H0V0ZM0 9.51497H11.6108V11.5689H0V9.51497ZM0 18.9461H13.5389V21H0V18.9461ZM37.3473 0.838323C38.6048 1.38323 39.6946 2.13772 40.6587 3.05988C41.6228 3.98204 42.3773 5.07186 42.9222 6.37126C43.509 7.62874 43.7605 9.01198 43.7605 10.479C43.7605 11.8623 43.509 13.2036 42.9641 14.4611C42.4192 15.7186 41.6647 16.8084 40.7425 17.7725C39.8204 18.7365 38.6886 19.491 37.4311 20.0778C36.1737 20.6647 34.8323 20.9581 33.3653 21H26.6168V18.9461H33.6168C34.6647 18.9461 35.7126 18.6946 36.6766 18.2335C37.6407 17.7725 38.521 17.1856 39.2754 16.4311C40.0299 15.6766 40.6168 14.7964 41.0778 13.7904C41.5389 12.7844 41.7485 11.6946 41.7485 10.521C41.7485 9.43114 41.5389 8.38323 41.1198 7.37725C40.7006 6.37126 40.1138 5.49102 39.4012 4.69461C38.6886 3.8982 37.8084 3.26946 36.8443 2.80838C35.8383 2.30539 34.7904 2.05389 33.6587 2.05389H26.6168V0H33.4072C34.7485 0 36.0898 0.293413 37.3473 0.838323ZM69.3713 0H55.8323V2.05389H69.3713V0ZM67.4431 9.51497H55.8323V11.5689H67.4431V9.51497ZM69.3713 18.9461H55.8323V21H69.3713V18.9461ZM98.9222 5.7006C98.9222 6.37126 98.8383 7 98.7126 7.54491C98.5449 8.08982 98.3773 8.5509 98.1258 8.92814C97.8743 9.34731 97.6228 9.68263 97.2874 9.97605C96.9521 10.2695 96.6587 10.521 96.3234 10.6886C95.5689 11.1497 94.7306 11.4431 93.7665 11.5689L98.8383 21H96.491L91.4192 11.5689H82.4072V9.51497H93.3473C93.6407 9.51497 93.9761 9.43114 94.3952 9.30539C94.8144 9.17964 95.1916 8.92814 95.527 8.63473C95.9042 8.34132 96.1976 7.96407 96.4491 7.46108C96.7006 6.95808 96.8264 6.41317 96.8264 5.74252C96.8264 5.07186 96.7006 4.48503 96.491 4.02395C96.2814 3.56287 95.988 3.18563 95.6527 2.89222C95.3174 2.5988 94.9401 2.38922 94.521 2.26347C94.1018 2.13772 93.7246 2.05389 93.3054 2.05389H82.3653V0H93.6826C94.6467 0.0419162 95.527 0.251497 96.2395 0.670659C96.5749 0.838323 96.8683 1.0479 97.2036 1.34132C97.5389 1.63473 97.7904 1.97006 98.0419 2.34731C98.2934 2.76647 98.4611 3.22755 98.6288 3.77246C98.8383 4.31737 98.9222 4.98802 98.9222 5.7006ZM111.371 0V3.1018L113.425 5.11377L128.725 21V0H126.671V15.8862L111.371 0Z" fill="white"/>
</svg>
